<svg width="1280" height="832" viewBox="0 0 1280 832" fill="none" xmlns="http://www.w3.org/2000/svg">
<g clip-path="url(#clip0_33_5)">
<rect width="1280" height="832" fill="black"/>
<circle cx="351" cy="220" r="68" fill="#1FD662"/>
<circle cx="699.5" cy="194.5" r="25.5" fill="#1FD662"/>
<circle cx="937" cy="708" r="51" fill="#1FD662"/>
<ellipse cx="976.5" cy="668" rx="23.5" ry="23" fill="#1FD662"/>
<circle cx="504" cy="793" r="68" fill="#1FD662"/>
<circle cx="538" cy="725" r="34" fill="#1FD662"/>
<circle cx="89" cy="596" r="129" fill="#1FD662"/>
<circle cx="56" cy="23" r="129" fill="#1FD662"/>
<circle cx="879" cy="-42" r="129" fill="#1FD662"/>
<circle cx="1115" cy="114" r="68" fill="#1FD662"/>
<circle cx="924" cy="432" r="68" fill="#1FD662"/>
<circle cx="1251" cy="793" r="68" fill="#1FD662"/>
<circle cx="427" cy="250" r="38" fill="#1FD662"/>
<circle cx="1085" cy="190" r="38" fill="#1FD662"/>
<circle cx="886" cy="483" r="38" fill="#1FD662"/>
<circle cx="389" cy="305" r="47" fill="#1FD662"/>
<circle cx="563.5" cy="449.5" r="17.5" fill="#1FD662"/>
<circle cx="217.5" cy="578.5" r="17.5" fill="#1FD662"/>
<ellipse cx="246.5" cy="561" rx="22.5" ry="19" fill="#1FD662"/>
<circle cx="88.5" cy="449.5" r="43.5" fill="#1FD662"/>
<rect width="1280" height="832" fill="black" fill-opacity="0.6"/>
</g>
<defs>
<clipPath id="clip0_33_5">
<rect width="1280" height="832" fill="white"/>
</clipPath>
</defs>
</svg>
