<svg width="1280" height="832" viewBox="0 0 1280 832" fill="none" xmlns="http://www.w3.org/2000/svg">
<g clip-path="url(#clip0_33_5)">
<rect width="1280" height="832" fill="black"/>
<circle cx="432" cy="249" r="68" fill="#1FD662"/>
<circle cx="589.5" cy="126.5" r="25.5" fill="#1FD662"/>
<circle cx="1122.5" cy="457.5" r="25.5" fill="#1FD662"/>
<circle cx="937" cy="708" r="51" fill="#1FD662"/>
<ellipse cx="976.5" cy="668" rx="23.5" ry="23" fill="#1FD662"/>
<circle cx="513" cy="725" r="68" fill="#1FD662"/>
<circle cx="547" cy="657" r="34" fill="#1FD662"/>
<circle cx="172" cy="664" r="129" fill="#1FD662"/>
<circle cx="140" cy="152" r="129" fill="#1FD662"/>
<circle cx="848" cy="152" r="129" fill="#1FD662"/>
<circle cx="1115" cy="167" r="68" fill="#1FD662"/>
<circle cx="924" cy="432" r="68" fill="#1FD662"/>
<circle cx="1153" cy="697" r="68" fill="#1FD662"/>
<circle cx="508" cy="279" r="38" fill="#1FD662"/>
<circle cx="1085" cy="243" r="38" fill="#1FD662"/>
<circle cx="886" cy="483" r="38" fill="#1FD662"/>
<circle cx="470" cy="334" r="47" fill="#1FD662"/>
<circle cx="563.5" cy="449.5" r="17.5" fill="#1FD662"/>
<circle cx="300.5" cy="646.5" r="17.5" fill="#1FD662"/>
<ellipse cx="329.5" cy="629" rx="22.5" ry="19" fill="#1FD662"/>
<circle cx="171.5" cy="517.5" r="43.5" fill="#1FD662"/>
<rect width="1280" height="832" fill="black" fill-opacity="0.6"/>
</g>
<defs>
<clipPath id="clip0_33_5">
<rect width="1280" height="832" fill="white"/>
</clipPath>
</defs>
</svg>
