<svg width="193" height="65" viewBox="0 0 193 65" fill="none" xmlns="http://www.w3.org/2000/svg">
<path d="M24.4128 26.1471V33.8457H18.1107C15.0432 33.7502 14.5896 34.5977 16.75 36.388C20.6172 39.7778 22.515 43.072 22.4434 46.2708C22.3717 49.4696 20.474 51.3793 16.75 52H3V44.3014H8.44271C11.8205 44.3969 12.2502 43.454 9.73177 41.4727C5.57813 37.6532 3.81163 34.1441 4.43229 30.9453C5.05295 27.7465 7.01042 26.1471 10.3047 26.1471H24.4128ZM24.4128 52V26.1471H41.2422C43.319 26.3381 45.0378 26.8752 46.3984 27.7585C47.7591 28.6417 48.7259 29.8711 49.2988 31.4466C49.824 33.3563 50.0388 34.7886 49.9434 35.7435C49.8479 36.6984 49.6569 37.5935 49.3704 38.429C49.084 39.2645 48.2962 40.2313 47.0072 41.3294C45.7181 42.4275 43.9994 43.1377 41.8509 43.46H33.7585V52H24.4128ZM33.7585 32.5924V37.3548H40.2754C40.6215 37.3548 40.9975 37.2295 41.4033 36.9788C41.8091 36.7163 42.024 36.0658 42.0479 35.0273C41.9882 34.0367 41.7435 33.3862 41.3138 33.0758C40.8961 32.7536 40.5439 32.5924 40.2575 32.5924H33.7585ZM80.0931 39.2168C80.0931 42.0456 79.5023 44.4566 78.3206 46.4499C77.139 48.4431 75.4262 49.9411 73.1823 50.9437C70.9503 51.9463 68.2827 52.4476 65.1794 52.4476C62.0761 52.4476 59.4084 51.9463 57.1764 50.9437C54.9564 49.9291 53.2734 48.4372 52.1276 46.4678C50.9818 44.4864 50.4089 42.0694 50.4089 39.2168C50.4089 37.0564 50.7371 35.1586 51.3936 33.5234C52.05 31.8763 53.0109 30.4918 54.276 29.3698C55.5412 28.2478 57.0929 27.4004 58.931 26.8275C60.7691 26.2426 62.8519 25.9502 65.1794 25.9502C68.2707 25.9502 70.9384 26.4634 73.1823 27.4899C75.4262 28.5044 77.139 30.0084 78.3206 32.0016C79.5023 33.983 80.0931 36.388 80.0931 39.2168ZM59.5934 39.2884C59.5934 40.9475 59.9634 42.3917 60.7035 43.6211C61.4554 44.8505 62.9295 45.4652 65.1257 45.4652C66.8205 45.4652 68.0857 45.1429 68.9212 44.4984C69.7687 43.8538 70.2938 43.1198 70.4967 42.2962C70.7116 41.4607 70.8548 40.4581 70.9264 39.2884C70.8548 37.6293 70.455 36.1851 69.7269 34.9557C68.9988 33.7144 67.4651 33.0937 65.1257 33.0937C61.4375 33.0937 59.5934 35.1586 59.5934 39.2884ZM89.7611 26.1471V34.5618L95.6693 26.1471H104.084L94.4518 39.0736L98.7487 44.3014H106.483V52H96.278L89.7611 44.3014V52H81.3464V26.1471H89.7611ZM130.044 26.1471V33.8457H121.844V52H113.43V33.8457H105.23V26.1471H130.044ZM130.581 26.1471H138.996V52H130.581V26.1471ZM140.786 52V26.1471H162.951V33.8457H149.201V36.8177H158.081V41.3294H149.201V52H140.786ZM192.17 26.1471L180.891 42.5111V52H172.44V42.5111L161.161 26.1471H171.366L176.63 34.1322L181.965 26.1471H192.17Z" fill="black"/>
<path d="M21.4128 20.1471V27.8457H15.1107C12.0432 27.7502 11.5896 28.5977 13.75 30.388C17.6172 33.7778 19.515 37.072 19.4434 40.2708C19.3717 43.4696 17.474 45.3793 13.75 46H0V38.3014H5.44271C8.82053 38.3969 9.25022 37.454 6.73177 35.4727C2.57813 31.6532 0.811632 28.1441 1.43229 24.9453C2.05295 21.7465 4.01042 20.1471 7.30469 20.1471H21.4128ZM21.4128 46V20.1471H38.2422C40.319 20.3381 42.0378 20.8752 43.3984 21.7585C44.7591 22.6417 45.7259 23.8711 46.2988 25.4466C46.824 27.3563 47.0388 28.7886 46.9434 29.7435C46.8479 30.6984 46.6569 31.5935 46.3704 32.429C46.084 33.2645 45.2962 34.2313 44.0072 35.3294C42.7181 36.4275 40.9994 37.1377 38.8509 37.46H30.7585V46H21.4128ZM30.7585 26.5924V31.3548H37.2754C37.6215 31.3548 37.9975 31.2295 38.4033 30.9788C38.8091 30.7163 39.024 30.0658 39.0479 29.0273C38.9882 28.0367 38.7435 27.3862 38.3138 27.0758C37.8961 26.7536 37.5439 26.5924 37.2575 26.5924H30.7585ZM77.0931 33.2168C77.0931 36.0456 76.5023 38.4566 75.3206 40.4499C74.139 42.4431 72.4262 43.9411 70.1823 44.9437C67.9503 45.9463 65.2827 46.4476 62.1794 46.4476C59.0761 46.4476 56.4084 45.9463 54.1764 44.9437C51.9564 43.9291 50.2734 42.4372 49.1276 40.4678C47.9818 38.4864 47.4089 36.0694 47.4089 33.2168C47.4089 31.0564 47.7371 29.1586 48.3936 27.5234C49.05 25.8763 50.0109 24.4918 51.276 23.3698C52.5412 22.2478 54.0929 21.4004 55.931 20.8275C57.7691 20.2426 59.8519 19.9502 62.1794 19.9502C65.2707 19.9502 67.9384 20.4634 70.1823 21.4899C72.4262 22.5044 74.139 24.0084 75.3206 26.0016C76.5023 27.983 77.0931 30.388 77.0931 33.2168ZM56.5934 33.2884C56.5934 34.9475 56.9634 36.3917 57.7035 37.6211C58.4554 38.8505 59.9295 39.4652 62.1257 39.4652C63.8205 39.4652 65.0857 39.1429 65.9212 38.4984C66.7687 37.8538 67.2938 37.1198 67.4967 36.2962C67.7116 35.4607 67.8548 34.4581 67.9264 33.2884C67.8548 31.6293 67.455 30.1851 66.7269 28.9557C65.9988 27.7144 64.4651 27.0937 62.1257 27.0937C58.4375 27.0937 56.5934 29.1586 56.5934 33.2884ZM86.7611 20.1471V28.5618L92.6693 20.1471H101.084L91.4518 33.0736L95.7487 38.3014H103.483V46H93.278L86.7611 38.3014V46H78.3464V20.1471H86.7611ZM127.044 20.1471V27.8457H118.844V46H110.43V27.8457H102.23V20.1471H127.044ZM127.581 20.1471H135.996V46H127.581V20.1471ZM137.786 46V20.1471H159.951V27.8457H146.201V30.8177H155.081V35.3294H146.201V46H137.786ZM189.17 20.1471L177.891 36.5111V46H169.44V36.5111L158.161 20.1471H168.366L173.63 28.1322L178.965 20.1471H189.17Z" fill="#1FD662"/>
</svg>
