<svg width="690" height="649" viewBox="0 0 690 649" fill="none" xmlns="http://www.w3.org/2000/svg">
<g filter="url(#filter0_d_24_291)">
<path d="M654.084 298.081C639.839 281.636 603.03 329.567 591.278 336.117L559.287 369.092C556.992 394.427 557.799 447.983 579.391 459.527C606.381 473.956 633.137 445.066 642.871 422.899C652.799 400.292 671.89 318.639 654.084 298.081Z" fill="#FFF0E1" stroke="black" stroke-width="9.77587"/>
<path d="M107.854 403.276C102.455 372.216 100.7 313.762 115.63 316.112L184.979 350.121L203.256 465.666C200.412 468.644 189.776 478.007 166.062 476.204C137.439 474.029 113.577 436.198 107.854 403.276Z" fill="#FFF0E1" stroke="black" stroke-width="9.77587"/>
<path d="M194.595 499.739L160.892 346.916L141.146 235.536C135.33 221.702 130.632 180.604 158.368 126.884C193.039 59.7338 334.195 13.9591 381.033 11.268C427.87 8.57689 535.902 62.1039 574.534 90.0011C605.44 112.319 611.702 149.068 610.97 164.652L596.224 332.709C589.994 370.315 583.012 451.906 577.093 471.359C569.693 495.676 552.072 505.152 520.296 525.56C488.52 545.968 390.31 571.526 368.619 573.949C346.928 576.371 247.023 537.649 224.789 530.984C207.002 525.651 197.966 506.78 194.595 499.739Z" fill="#FFF0E1" stroke="black" stroke-width="9.77587"/>
<path d="M333.843 320.541C326.696 316.461 308.495 308.096 292.865 307.27C273.329 306.237 210.505 304.465 198.743 297.978" stroke="black" stroke-width="5.58621" stroke-linecap="round"/>
<path d="M581.898 231.2C585.335 226.23 571.276 226.129 563.817 226.7L557.462 230.782C552.378 234.047 544.109 235.675 540.61 236.081C536.567 243.833 523.486 243.703 517.451 242.669C514.382 245.177 506.568 250.165 499.865 250.05C491.487 249.907 494.352 245.765 488.874 239.386C484.491 234.283 474.755 248.224 470.435 255.832C458.553 264.568 430.456 265.857 417.893 265.41C398.191 274.012 379.461 266.615 372.559 261.841C351.115 274.325 325.923 266.398 316.007 260.874C300.879 263.409 285.966 261.524 280.4 260.265L269.927 260.086C258.709 262.688 244.308 260.812 238.51 259.549C228.967 262.18 215.024 257.984 209.246 255.557C200.772 260.999 197.413 253.26 189.094 249.625C180.776 245.991 177.852 253.623 172.183 258.415C167.648 262.249 165.289 334.886 164.676 370.726C158.315 361.538 143.524 341.591 135.251 335.304C126.978 329.017 126.394 240.638 127.142 196.886C127.196 193.733 124.839 184.555 152.217 119.097C179.595 53.6377 321.834 15.3774 389.531 4.42962C552.498 30.9607 603.416 116.335 609.425 132.5C615.434 148.666 625.823 235.442 625.018 241.714C624.212 247.986 630.8 271.145 632.727 280.955C634.655 290.765 618.829 317.731 614.473 327.434C610.988 335.197 596.253 358.317 589.321 368.907C586.695 331.848 580.628 256.459 577.363 251.375C573.281 245.02 577.602 237.412 581.898 231.2Z" fill="black" stroke="black" stroke-width="4.18966"/>
<path d="M464.02 345.115C443.923 344.213 415.801 360.586 404.27 367.838C409.903 365.141 452.826 354.003 463.865 354.191C472.942 354.347 514.331 357.149 534.297 360.284C530.965 359.11 529.241 356.473 528.795 355.301C515.566 352.98 484.118 346.017 464.02 345.115Z" fill="black" stroke="black" stroke-width="8.37931"/>
<path d="M264.14 353.583C244.042 352.681 215.92 369.054 204.389 376.307C210.022 373.609 252.945 362.471 263.985 362.66C273.061 362.815 314.45 365.617 334.417 368.752C331.084 367.578 329.36 364.941 328.915 363.77C315.685 361.448 284.238 354.486 264.14 353.583Z" fill="black" stroke="black" stroke-width="8.37931"/>
<path d="M402.341 358.028C409.182 352.791 423.843 342.193 427.762 341.702" stroke="black" stroke-width="4.18966"/>
<path d="M419.73 321.311C423.758 317.189 433.052 307.903 438.843 306.273C445.861 304.298 515.338 284.535 523.114 279.081C528.755 275.918 540.328 268.899 541.493 266.126" stroke="black" stroke-width="5.58621" stroke-linecap="round"/>
<mask id="path-10-inside-1_24_291" fill="white">
<path fill-rule="evenodd" clip-rule="evenodd" d="M305.033 475.917C308.15 515.125 334.584 546.333 368.311 548.065C405.514 549.975 437.562 515.299 440.113 470.51C388.301 457.897 330.442 468.332 305.033 475.917Z"/>
</mask>
<path fill-rule="evenodd" clip-rule="evenodd" d="M305.033 475.917C308.15 515.125 334.584 546.333 368.311 548.065C405.514 549.975 437.562 515.299 440.113 470.51C388.301 457.897 330.442 468.332 305.033 475.917Z" fill="#FF8763"/>
<path d="M305.033 475.917L303.035 469.226L297.624 470.841L298.072 476.471L305.033 475.917ZM440.113 470.51L447.085 470.907L447.415 465.101L441.765 463.725L440.113 470.51ZM368.669 541.091C339.437 539.591 314.92 512.171 311.993 475.363L298.072 476.471C301.381 518.079 329.731 553.076 367.953 555.038L368.669 541.091ZM433.142 470.113C430.737 512.339 400.877 542.745 368.669 541.091L367.953 555.038C410.151 557.205 444.388 518.259 447.085 470.907L433.142 470.113ZM441.765 463.725C388.277 450.704 329.057 461.458 303.035 469.226L307.03 482.608C331.827 475.206 388.325 465.089 438.462 477.294L441.765 463.725Z" fill="black" mask="url(#path-10-inside-1_24_291)"/>
<path d="M425.737 500.897C403.085 485.983 345.25 497.454 319.515 504.929L310.856 480.338C361.941 466.126 412.753 470.644 432.451 475.87C432.914 481.465 428.854 495.596 425.737 500.897Z" fill="#FA4B33"/>
<path d="M612.657 351.847C619.617 339.628 634.765 316.887 639.677 323.675C644.589 330.463 644.735 340.988 644.194 345.402" stroke="black" stroke-width="5.58621"/>
<path d="M137.933 347.823C131.97 342.599 119.607 333.123 117.865 337.004C116.122 340.885 116.86 354.912 117.447 361.44" stroke="black" stroke-width="5.58621"/>
<path d="M479.714 162.409L484.876 228.144L488.122 201.661L479.714 162.409Z" fill="#D9D9D9" fill-opacity="0.6"/>
<path d="M275.71 44.3863C293.391 31.4194 353.022 15.6778 378.878 14.7232C436.827 15.7139 488.211 73.8594 479.917 68.829C468.593 61.9617 415.87 43.2907 390.437 33.0786L409.395 108.828L373.007 31.3838L335.615 94.297L354.842 31.7717C348.077 32.5872 325.12 38.2473 304.359 43.4794C283.597 48.7114 258.796 66.9108 247.956 74.6404C250.595 70.0297 259.097 56.5694 275.71 44.3863Z" fill="#D9D9D9" fill-opacity="0.5"/>
<path d="M140.795 296.988C140.316 256.939 142.542 170.332 155.278 144.29C143.147 159.447 123.266 211.207 140.795 296.988Z" fill="#D9D9D9" stroke="black" stroke-width="1.39655"/>
<path d="M372.834 175.001C369.998 187.349 371.058 231.672 372.004 253.451C362.246 226.95 368.197 191.283 372.834 175.001C373.001 174.273 373.182 173.655 373.377 173.161C373.199 173.743 373.017 174.357 372.834 175.001Z" fill="#D9D9D9"/>
<path d="M372.004 253.451C371.002 230.387 369.873 182.04 373.377 173.161C368.693 188.445 361.86 225.901 372.004 253.451Z" stroke="black" stroke-width="1.39655"/>
<path d="M208.691 247.167C206.851 232.237 205.612 198.507 215.374 183.03C213.198 201.384 208.815 239.906 208.691 247.167Z" fill="#D9D9D9" stroke="black" stroke-width="1.39655"/>
<path d="M313.357 252.448C312.216 237.53 310.825 204.496 314.396 191.707C309.771 203.5 303.089 232.159 313.357 252.448Z" fill="#D9D9D9"/>
<path d="M583.485 220.052C585.373 204.953 588.214 172.224 584.476 162.104C582.166 174.635 578.735 203.769 583.485 220.052Z" fill="#D9D9D9"/>
<path d="M313.357 252.448C312.216 237.53 310.825 204.496 314.396 191.707C309.771 203.5 303.089 232.159 313.357 252.448Z" stroke="black" stroke-width="1.39655"/>
<path d="M583.485 220.052C585.373 204.953 588.214 172.224 584.476 162.104C582.166 174.635 578.735 203.769 583.485 220.052Z" stroke="black" stroke-width="1.39655"/>
<path d="M592.883 446.488C607.644 432.451 637.364 400.276 639.324 382.853C639.342 382.679 639.359 382.505 639.375 382.334C639.361 382.506 639.344 382.679 639.324 382.853C637.444 401.412 625.662 439.3 592.883 446.488Z" fill="#FFCF9F"/>
<path d="M515.238 506.43C529.669 496.421 560.067 471.236 566.212 450.568C567.376 461.507 558.81 487.995 515.238 506.43Z" fill="#FFCF9F"/>
<path d="M370.899 440.597C370.899 440.597 380.442 437.966 382.213 432.41" stroke="#FFAC58" stroke-width="5.58621"/>
<path d="M430.938 482.686L431.779 474.32C399.258 468.183 372.405 470.06 349.392 473.106C334.966 475.015 322.049 477.384 310.19 478.527L310.84 481.331L313.525 487.662C367.393 474.057 413.315 478.66 430.938 482.686Z" fill="white" stroke="black" stroke-width="4.18966"/>
<path d="M511.05 59.533C529.67 67.6795 568.169 87.883 573.196 103.524C561.093 94.214 531.719 72.3812 511.05 59.533Z" fill="#6C6C6C"/>
<path d="M547.359 241.084C547.359 243.878 541.772 248.3 538.979 250.162C551.269 250.162 569.238 276.697 576.686 289.964L573.195 257.843C571.566 255.283 568.028 249.184 566.91 245.274C565.793 241.364 569.704 237.128 571.798 235.498L562.721 234.102C560.486 236.336 551.548 239.688 547.359 241.084Z" fill="#FFCF9F"/>
<path d="M620.678 366.076C627.66 373.059 633.526 392.331 601.126 413.559" stroke="black" stroke-width="5.58621"/>
<path d="M153.53 419.145C156.789 408.438 157.44 384.511 133.978 374.456" stroke="black" stroke-width="5.58621"/>
<path fill-rule="evenodd" clip-rule="evenodd" d="M199.615 375.157C190.746 375.299 183.672 382.603 183.814 391.472L185.001 465.622C181.799 466.239 178.516 467.021 175.177 467.948V395.149C175.177 386.279 167.986 379.089 159.116 379.089C150.246 379.089 143.056 386.279 143.056 395.149V476.149C143.056 477.436 143.207 478.688 143.493 479.887C140.64 481.199 137.795 482.563 134.97 483.965C134.716 483.581 134.444 483.204 134.152 482.836L83.8455 419.352C78.3367 412.4 68.2353 411.23 61.2835 416.739C54.3317 422.248 53.1619 432.349 58.6707 439.301L106.497 499.656C105.35 500.348 104.215 501.04 103.095 501.73L57.5783 439.294C52.3531 432.127 42.3069 430.552 35.1395 435.777C27.972 441.003 26.3975 451.049 31.6227 458.216L79.3393 523.67C79.3615 523.7 79.3838 523.73 79.4061 523.761C86.1521 548.128 102.869 589.732 126.204 595.955C151.342 602.659 169.73 586.645 175.782 577.8C210.066 580.941 224.845 565.506 229.122 544.118C229.426 543.68 229.714 543.227 229.986 542.757L267.075 478.703C272.486 469.358 269.297 457.397 259.952 451.986C250.607 446.575 238.646 449.764 233.235 459.109L221.267 479.778C219.957 475.958 218.577 472.313 217.179 468.915L215.93 390.958C215.788 382.089 208.483 375.014 199.615 375.157Z" fill="#FFF0E1"/>
<path d="M183.814 391.472L179.624 391.539V391.539L183.814 391.472ZM199.615 375.157L199.548 370.967L199.615 375.157ZM185.001 465.622L185.794 469.736L189.247 469.071L189.19 465.555L185.001 465.622ZM175.177 467.948H170.987V473.458L176.296 471.985L175.177 467.948ZM143.493 479.887L145.244 483.693L148.365 482.257L147.568 478.915L143.493 479.887ZM134.97 483.965L131.476 486.276L133.518 489.363L136.834 487.717L134.97 483.965ZM134.152 482.836L130.868 485.438L130.868 485.438L134.152 482.836ZM83.8455 419.352L87.1292 416.75L83.8455 419.352ZM61.2835 416.739L58.6814 413.455V413.455L61.2835 416.739ZM58.6707 439.301L61.9544 436.699L58.6707 439.301ZM106.497 499.656L108.662 503.243L112.737 500.784L109.781 497.054L106.497 499.656ZM103.095 501.73L99.7095 504.198L101.992 507.329L105.292 505.297L103.095 501.73ZM57.5783 439.294L54.1928 441.762L57.5783 439.294ZM35.1395 435.777L32.6714 432.392L35.1395 435.777ZM31.6227 458.216L35.0082 455.748H35.0082L31.6227 458.216ZM79.3393 523.67L75.9538 526.138L75.9541 526.138L79.3393 523.67ZM79.4061 523.761L83.4439 522.643L83.2366 521.894L82.7745 521.269L79.4061 523.761ZM126.204 595.955L125.124 600.003L126.204 595.955ZM175.782 577.8L176.164 573.628L173.713 573.403L172.324 575.434L175.782 577.8ZM229.122 544.118L225.679 541.731L225.184 542.445L225.014 543.297L229.122 544.118ZM229.986 542.757L233.612 544.857V544.857L229.986 542.757ZM267.075 478.703L263.449 476.604L267.075 478.703ZM233.235 459.109L229.609 457.01L233.235 459.109ZM221.267 479.778L217.304 481.137L220.286 489.833L224.893 481.878L221.267 479.778ZM217.179 468.915L212.99 468.982L213.002 469.775L213.304 470.509L217.179 468.915ZM215.93 390.958L220.119 390.891V390.891L215.93 390.958ZM188.003 391.405C187.898 384.85 193.127 379.451 199.682 379.346L199.548 370.967C188.365 371.147 179.445 380.357 179.624 391.539L188.003 391.405ZM189.19 465.555L188.003 391.405L179.624 391.539L180.812 465.689L189.19 465.555ZM184.209 461.508C180.883 462.148 177.491 462.958 174.057 463.91L176.296 471.985C179.542 471.085 182.714 470.329 185.794 469.736L184.209 461.508ZM170.987 395.149V467.948H179.366V395.149H170.987ZM159.116 383.279C165.672 383.279 170.987 388.593 170.987 395.149H179.366C179.366 383.966 170.3 374.899 159.116 374.899V383.279ZM147.245 395.149C147.245 388.593 152.56 383.279 159.116 383.279V374.899C147.932 374.899 138.866 383.966 138.866 395.149H147.245ZM147.245 476.149V395.149H138.866V476.149H147.245ZM147.568 478.915C147.358 478.032 147.245 477.107 147.245 476.149H138.866C138.866 477.766 139.056 479.343 139.417 480.858L147.568 478.915ZM141.742 476.08C138.849 477.411 135.967 478.793 133.107 480.212L136.834 487.717C139.623 486.332 142.431 484.987 145.244 483.693L141.742 476.08ZM130.868 485.438C131.085 485.712 131.288 485.992 131.476 486.276L138.465 481.653C138.145 481.169 137.802 480.696 137.436 480.234L130.868 485.438ZM80.5618 421.954L130.868 485.438L137.436 480.234L87.1292 416.75L80.5618 421.954ZM63.8856 420.023C69.0239 415.951 76.4901 416.816 80.5618 421.954L87.1292 416.75C80.1833 407.985 67.4468 406.51 58.6814 413.455L63.8856 420.023ZM61.9544 436.699C57.8826 431.561 58.7473 424.095 63.8856 420.023L58.6814 413.455C49.9161 420.401 48.4412 433.138 55.3871 441.903L61.9544 436.699ZM109.781 497.054L61.9544 436.699L55.3871 441.903L103.214 502.258L109.781 497.054ZM104.333 496.069C103.174 496.768 102.029 497.466 100.898 498.162L105.292 505.297C106.401 504.614 107.525 503.929 108.662 503.243L104.333 496.069ZM106.481 499.262L60.9638 436.826L54.1928 441.762L99.7095 504.198L106.481 499.262ZM60.9638 436.826C54.3756 427.789 41.7086 425.804 32.6714 432.392L37.6076 439.163C42.9053 435.301 50.3307 436.465 54.1928 441.762L60.9638 436.826ZM32.6714 432.392C23.6342 438.98 21.6489 451.647 28.2372 460.684L35.0082 455.748C31.1461 450.451 32.3099 443.025 37.6076 439.163L32.6714 432.392ZM28.2372 460.684L75.9538 526.138L82.7248 521.201L35.0082 455.748L28.2372 460.684ZM75.9541 526.138C75.9813 526.175 76.0092 526.214 76.0378 526.252L82.7745 521.269C82.7583 521.247 82.7417 521.225 82.7245 521.201L75.9541 526.138ZM75.3684 524.878C78.7989 537.27 84.7744 554.1 92.9256 568.704C97.0025 576.009 101.692 582.881 106.975 588.379C112.243 593.862 118.298 598.183 125.124 600.003L127.283 591.907C122.442 590.616 117.657 587.403 113.017 582.574C108.392 577.76 104.105 571.541 100.242 564.62C92.5151 550.775 86.7594 534.619 83.4439 522.643L75.3684 524.878ZM125.124 600.003C152.652 607.344 172.645 589.803 179.239 580.166L172.324 575.434C166.814 583.486 150.032 597.973 127.283 591.907L125.124 600.003ZM175.399 581.972C193.189 583.602 206.568 580.468 216.155 573.556C225.763 566.628 230.949 556.347 233.231 544.94L225.014 543.297C223.018 553.277 218.676 561.407 211.254 566.759C203.811 572.126 192.659 575.139 176.164 573.628L175.399 581.972ZM232.565 546.505C232.934 545.974 233.283 545.425 233.612 544.857L226.36 540.658C226.145 541.029 225.918 541.387 225.679 541.731L232.565 546.505ZM233.612 544.857L270.701 480.803L263.449 476.604L226.36 540.658L233.612 544.857ZM270.701 480.803C277.271 469.455 273.399 454.931 262.052 448.36L257.853 455.612C265.195 459.863 267.701 469.262 263.449 476.604L270.701 480.803ZM262.052 448.36C250.704 441.79 236.18 445.662 229.609 457.01L236.861 461.208C241.112 453.866 250.511 451.36 257.853 455.612L262.052 448.36ZM229.609 457.01L217.641 477.679L224.893 481.878L236.861 461.208L229.609 457.01ZM225.23 478.419C223.893 474.519 222.484 470.796 221.053 467.32L213.304 470.509C214.671 473.83 216.021 477.396 217.304 481.137L225.23 478.419ZM211.741 391.025L212.99 468.982L221.368 468.848L220.119 390.891L211.741 391.025ZM199.682 379.346C206.237 379.241 211.636 384.47 211.741 391.025L220.119 390.891C219.94 379.708 210.73 370.788 199.548 370.967L199.682 379.346Z" fill="black"/>
<path d="M161.225 549.468C160.992 537.83 163.739 514.275 176.587 513.157" stroke="black" stroke-width="8.37931"/>
<path d="M164.005 526.879C158.651 524.086 146.687 519.338 141.66 522.69" stroke="black" stroke-width="8.37931"/>
<path d="M95.5741 519.147C114.893 500.293 162.469 464.541 198.221 472.362" stroke="black" stroke-width="8.37931"/>
<path d="M243.608 484.528C245.842 476.708 256.642 477.546 261.763 478.942L249.892 500.589C246.866 498.494 241.373 492.349 243.608 484.528Z" fill="white" stroke="black" stroke-width="5.58621"/>
</g>
<defs>
<filter id="filter0_d_24_291" x="0.887625" y="2.30737" width="688.854" height="646.368" filterUnits="userSpaceOnUse" color-interpolation-filters="sRGB">
<feFlood flood-opacity="0" result="BackgroundImageFix"/>
<feColorMatrix in="SourceAlpha" type="matrix" values="0 0 0 0 0 0 0 0 0 0 0 0 0 0 0 0 0 0 127 0" result="hardAlpha"/>
<feOffset dy="23.4615"/>
<feGaussianBlur stdDeviation="11.7307"/>
<feComposite in2="hardAlpha" operator="out"/>
<feColorMatrix type="matrix" values="0 0 0 0 0 0 0 0 0 0 0 0 0 0 0 0 0 0 0.5 0"/>
<feBlend mode="normal" in2="BackgroundImageFix" result="effect1_dropShadow_24_291"/>
<feBlend mode="normal" in="SourceGraphic" in2="effect1_dropShadow_24_291" result="shape"/>
</filter>
</defs>
</svg>
