<svg width="408" height="415" viewBox="0 0 408 415" fill="none" xmlns="http://www.w3.org/2000/svg">
<path d="M398.411 213.441C388.211 201.665 361.853 235.986 353.439 240.676L330.532 264.288C328.888 282.429 329.466 320.778 344.927 329.043C364.253 339.375 383.412 318.689 390.382 302.817C397.49 286.629 411.161 228.161 398.411 213.441Z" fill="#FFF0E1" stroke="black" stroke-width="7"/>
<path d="M7.28368 288.766C3.41771 266.525 2.16099 224.669 12.8514 226.352L62.5087 250.704L75.5963 333.44C73.5596 335.572 65.9438 342.276 48.9634 340.986C28.4677 339.428 11.3813 312.339 7.28368 288.766Z" fill="#FFF0E1" stroke="black" stroke-width="7"/>
<path d="M69.3943 357.838L45.2614 248.409L31.1227 168.656C26.9581 158.75 23.594 129.321 43.4544 90.8551C68.28 42.7725 169.355 9.9955 202.893 8.06853C236.431 6.14156 313.787 44.4695 341.449 64.4453C363.58 80.426 368.064 106.74 367.54 117.899L356.981 238.236C352.52 265.164 347.52 323.587 343.282 337.517C337.983 354.929 325.365 361.714 302.612 376.327C279.859 390.94 209.536 409.241 194.004 410.975C178.472 412.71 106.936 384.983 91.015 380.21C78.2784 376.392 71.8085 362.88 69.3943 357.838Z" fill="#FFF0E1" stroke="black" stroke-width="7"/>
<path d="M346.722 165.55C349.183 161.992 339.116 161.92 333.775 162.328L329.224 165.251C325.584 167.589 319.663 168.755 317.158 169.045C314.263 174.597 304.896 174.503 300.575 173.763C298.377 175.559 292.782 179.13 287.983 179.048C281.983 178.946 284.034 175.98 280.112 171.412C276.974 167.758 270.002 177.741 266.909 183.188C258.401 189.444 238.282 190.367 229.286 190.046C215.179 196.206 201.767 190.909 196.825 187.491C181.47 196.43 163.431 190.754 156.331 186.799C145.498 188.614 134.82 187.264 130.835 186.363L123.336 186.235C115.303 188.098 104.991 186.754 100.839 185.85C94.0058 187.733 84.0223 184.729 79.8848 182.991C73.8173 186.888 71.4117 181.346 65.4553 178.744C59.4989 176.142 57.4052 181.607 53.3459 185.038C50.0985 187.783 48.4091 239.795 47.9704 265.458C43.4155 258.879 32.8248 244.596 26.9009 240.094C20.977 235.592 20.5587 172.309 21.0944 140.98C21.1329 138.722 19.445 132.151 39.0491 85.279C58.6533 38.4073 160.503 11.011 208.978 3.17183C325.67 22.1694 362.13 83.3016 366.433 94.8769C370.736 106.452 378.175 168.588 377.598 173.079C377.021 177.57 381.738 194.153 383.118 201.178C384.498 208.202 373.167 227.511 370.047 234.459C367.552 240.017 357.001 256.573 352.037 264.155C350.157 237.619 345.813 183.637 343.474 179.997C340.552 175.446 343.645 169.998 346.722 165.55Z" fill="black" stroke="black" stroke-width="3"/>
<path d="M368.748 251.939C373.732 243.19 384.579 226.906 388.096 231.767C391.613 236.628 391.718 244.164 391.331 247.325" stroke="black" stroke-width="4"/>
<path d="M28.8216 249.058C24.5516 245.318 15.6996 238.532 14.4519 241.311C13.2042 244.09 13.7326 254.134 14.1528 258.809" stroke="black" stroke-width="4"/>
<path d="M273.553 116.292L277.249 163.362L279.574 144.399L273.553 116.292Z" fill="#D9D9D9" fill-opacity="0.6"/>
<path d="M127.477 31.7828C140.137 22.4979 182.836 11.2262 201.35 10.5425C242.844 11.252 279.638 52.887 273.699 49.285C265.591 44.3676 227.838 30.9983 209.627 23.686L223.202 77.9259L197.146 22.4724L170.372 67.5213L184.139 22.7501C179.295 23.3341 162.857 27.387 147.991 31.1334C133.124 34.8798 115.366 47.9115 107.603 53.4463C109.493 50.1448 115.581 40.5065 127.477 31.7828Z" fill="#D9D9D9" fill-opacity="0.5"/>
<path d="M30.8705 212.658C30.5273 183.981 32.121 121.966 41.2411 103.319C32.5543 114.172 18.3187 151.234 30.8705 212.658Z" fill="#D9D9D9" stroke="black"/>
<path d="M197.021 125.31C194.991 134.151 195.75 165.889 196.428 181.483C189.44 162.507 193.701 136.968 197.021 125.31C197.141 124.788 197.271 124.346 197.411 123.992C197.283 124.409 197.153 124.848 197.021 125.31Z" fill="#D9D9D9"/>
<path d="M196.428 181.483C195.71 164.969 194.901 130.35 197.411 123.992C194.056 134.936 189.164 161.756 196.428 181.483Z" stroke="black"/>
<path d="M79.4874 176.984C78.1699 166.293 77.2827 142.141 84.2731 131.059C82.7149 144.201 79.5763 171.784 79.4874 176.984Z" fill="#D9D9D9" stroke="black"/>
<path d="M154.434 180.765C153.616 170.083 152.62 146.429 155.177 137.272C151.866 145.716 147.081 166.238 154.434 180.765Z" fill="#D9D9D9"/>
<path d="M347.858 157.569C349.21 146.757 351.244 123.321 348.568 116.075C346.914 125.048 344.457 145.909 347.858 157.569Z" fill="#D9D9D9"/>
<path d="M154.434 180.765C153.616 170.083 152.62 146.429 155.177 137.272C151.866 145.716 147.081 166.238 154.434 180.765Z" stroke="black"/>
<path d="M347.858 157.569C349.21 146.757 351.244 123.321 348.568 116.075C346.914 125.048 344.457 145.909 347.858 157.569Z" stroke="black"/>
<path d="M354.588 319.707C365.157 309.656 386.438 286.617 387.842 274.142C387.854 274.016 387.867 273.892 387.878 273.77C387.868 273.892 387.856 274.017 387.842 274.142C386.495 287.431 378.059 314.56 354.588 319.707Z" fill="#FFCF9F"/>
<path d="M298.99 362.629C309.324 355.462 331.09 337.429 335.49 322.629C336.324 330.462 330.19 349.429 298.99 362.629Z" fill="#FFCF9F"/>
<path d="M195.637 315.489C195.637 315.489 202.47 313.606 203.738 309.627" stroke="#FFAC58" stroke-width="4"/>
<path d="M295.99 42.6287C309.324 48.462 336.89 62.9287 340.49 74.1287C331.824 67.462 310.79 51.8287 295.99 42.6287Z" fill="#6C6C6C"/>
<path d="M321.99 172.629C321.99 174.629 317.99 177.795 315.99 179.129C324.79 179.129 337.657 198.129 342.99 207.629L340.49 184.629C339.324 182.795 336.79 178.429 335.99 175.629C335.19 172.829 337.99 169.795 339.49 168.629L332.99 167.629C331.39 169.229 324.99 171.629 321.99 172.629Z" fill="#FFCF9F"/>
<path d="M374.49 262.129C379.49 267.129 383.69 280.929 360.49 296.129" stroke="black" stroke-width="4"/>
<path d="M39.9903 300.129C42.3236 292.462 42.7903 275.329 25.9903 268.129" stroke="black" stroke-width="4"/>
<path d="M281.658 272.162C281.658 262.121 260.209 249.192 255.923 272.162C251.448 296.149 283.895 304.517 300.679 289.455C315.969 275.734 316.343 246.501 300.679 237.018C283.86 226.836 232.427 229.208 239.7 272.162" stroke="black" stroke-width="10" stroke-linecap="round"/>
<path d="M255.5 347.5C257.9 347.9 177.167 354.333 136.5 357.5C136.5 340.5 148 340.5 155 338C162 335.5 195.5 346 201.5 347.5C207.5 349 227 334.5 241 335.5C255 336.5 252.5 347 255.5 347.5Z" fill="white"/>
<path d="M134.658 276.162C134.658 266.121 113.209 253.192 108.923 276.162C104.448 300.149 136.895 308.517 153.679 293.455C168.969 279.734 169.343 250.501 153.679 241.018C136.86 230.836 85.427 233.208 92.6997 276.162" stroke="black" stroke-width="10" stroke-linecap="round"/>
<path d="M158.5 338C142.9 334.8 132.333 371.333 129 390C138.133 392.859 154.738 398.571 167 402C180.472 405.767 189.321 407.162 191.834 408C196.634 409.6 246.167 395.333 270.334 388C264.667 370.667 255.7 344.2 250.5 339C244 332.5 231.5 334.767 228.5 335.767C225.5 336.767 202 348.267 198 348.767C194 349.267 178 342 158.5 338Z" fill="#FF8A64"/>
<path d="M257.5 354.5C203.9 347.7 152.833 365.667 134 375.5C134.5 372.333 136.1 363.7 138.5 354.5C141.5 343 153 336 158 335.5C163 335 187.5 345.5 198 346.5C208.5 347.5 227 336.5 238 334C246.8 332 255.167 345.667 257.5 354.5Z" fill="#FA4B33"/>
<path d="M162.5 342.439C146.1 338.039 138 350.606 136 357.439C138.4 357.439 218.333 353.772 258 351.939L255 346.439C246.5 335.439 231.5 338.939 224.5 342.439C217.5 345.939 203.5 347.939 197.5 349.439C191.5 350.939 183 347.939 162.5 342.439Z" fill="white" stroke="black" stroke-width="3"/>
<path d="M128.5 390C131.833 370 134.5 337.5 156 339C177.05 340.469 178.5 346.5 200 346.5C218.212 346.5 229.351 331.656 245 336.5C266 343 269.5 384 271.5 388" stroke="black" stroke-width="7" stroke-linecap="round"/>
<path d="M233.5 210.5C250.167 216 290.2 227.1 317 227.5" stroke="black" stroke-width="4" stroke-linecap="round"/>
<path d="M158 210C141.833 218.333 102.5 235.2 74.5 236" stroke="black" stroke-width="4" stroke-linecap="round"/>
<path d="M309.5 188.5C301.966 181.546 313.302 150.667 321.302 133C326.302 147 338.558 177.406 335.802 184.5C332.5 193 316 194.5 309.5 188.5Z" fill="#86E5FC" stroke="black" stroke-width="4" stroke-linecap="round"/>
<path d="M326.5 166.5C328.833 170.5 332.8 179.3 330 182.5C326.5 186.5 328.5 171 326.5 166.5Z" fill="white"/>
</svg>
